<?xml version="1.0" encoding="utf-8"?>
<!-- Generator: Adobe Illustrator 15.0.2, SVG Export Plug-In  -->
<!DOCTYPE svg PUBLIC "-//W3C//DTD SVG 1.1//EN" "http://www.w3.org/Graphics/SVG/1.1/DTD/svg11.dtd" [
	<!ENTITY ns_flows "http://ns.adobe.com/Flows/1.0/">
]>
<svg version="1.1"
	 xmlns="http://www.w3.org/2000/svg" xmlns:xlink="http://www.w3.org/1999/xlink" xmlns:a="http://ns.adobe.com/AdobeSVGViewerExtensions/3.0/"
	 x="0px" y="0px" width="192px" height="203px" viewBox="-0.338 0 192 203"
	 overflow="visible" enable-background="new -0.338 0 192 203" xml:space="preserve">
<defs>
</defs>
<path fill-rule="evenodd" clip-rule="evenodd" fill="#3F8F21" d="M77.225,0c2.873,2.895,7.861,8.634,7.201,15.511
	c-0.825,8.596-10.315,11.258-12.742,2.216C69.756,10.541,75.019,3.794,77.225,0z"/>
<path fill-rule="evenodd" clip-rule="evenodd" fill="#3F8F21" d="M103.815,12.187c4.383,0.294,7,21.709,2.771,29.363
	c-2.547,4.607-9.36,9.799-13.85,8.863c-3.938-0.82-6.22-7.397-6.647-11.08c-1.558-13.385,10.529-22.574,16.62-26.591
	C103.053,12.513,103.117,12.14,103.815,12.187z"/>
<path fill-rule="evenodd" clip-rule="evenodd" fill="#3F8F21" d="M134.286,23.267c1.06,4.966-1.614,13.944-5.539,16.62
	c-1.785,1.216-8.171,2.904-9.973,1.663c-2.43-1.676-0.886-8.829,0.555-11.081C122.149,26.059,129.547,24.83,134.286,23.267z"/>
<path fill-rule="evenodd" clip-rule="evenodd" fill="#3F8F21" d="M20.163,28.253c7.572-0.472,16.775,1.953,18.836,7.202
	c2.473,6.301-0.732,10.118-8.31,8.31C24.96,42.398,21.583,33.61,20.163,28.253z"/>
<path fill-rule="evenodd" clip-rule="evenodd" fill="#521D18" d="M84.426,162.32c-6.278,0-12.557,0-18.834,0
	c-5.5-14.591-9.644-31.166-8.311-52.631c1.244-20.021,7.987-36.417,16.066-50.413c2.106-3.649,6.353-13.272,8.863-12.187
	c4.71,2.037-0.126,8.551-1.661,11.634c-6.761,13.567-9.943,26.285-11.634,42.657c12.18-2.504,20.456-8.822,28.252-16.62
	c1.736-1.733,7.045-7.663,9.418-4.432c1.066,1.452-3.823,6.804-4.986,8.31c-6.224,8.069-14.108,14.636-22.158,18.836
	c-1.583,0.827-9.659,2.847-10.526,4.432c-1.385,2.531,1.01,10.835,1.661,14.404C73.459,142.1,77.938,150.28,84.426,162.32z"/>
<path fill-rule="evenodd" clip-rule="evenodd" fill="#3F8F21" d="M22.379,53.184c9.857-1.323,18.062-0.518,23.268,6.647
	c1.271,1.749,3.518,6.173,3.324,7.755c-0.772,6.327-14.134,8.75-20.497,6.647c-2.614-0.862-8.331-4.68-10.526-6.647
	c-1.587-1.421-9.235-8.936-8.31-11.079C10.199,55.203,19.949,53.509,22.379,53.184z"/>
<path fill-rule="evenodd" clip-rule="evenodd" fill="#3F8F21" d="M161.431,63.155c-0.54,5.622-4.641,13.36-10.526,13.85
	c-5.06,0.422-8.012-2.95-4.986-8.31C148.113,64.807,155.794,63.231,161.431,63.155z"/>
<path fill-rule="evenodd" clip-rule="evenodd" fill="#3F8F21" d="M10.745,77.559c4.616-0.924,12.879,0.269,13.295,4.985
	c0.566,6.397-10.626,8.186-17.173,5.541c-1.285-0.521-6.506-2.935-6.647-3.879C-0.186,81.498,7.463,78.215,10.745,77.559z"/>
<path fill-rule="evenodd" clip-rule="evenodd" fill="#3F8F21" d="M181.929,82.544c-3.258,6.244-9.652,16.017-19.391,16.066
	c-2.968,0.016-9.722-1.962-10.525-4.433c-0.822-2.524,2.775-8.435,4.433-9.972C161.814,79.226,175.23,79.301,181.929,82.544z"/>
<path fill-rule="evenodd" clip-rule="evenodd" fill="#3F8F21" d="M179.713,98.61c0.103-0.014,11.275,1.041,11.633,3.879
	c0.527,4.188-17.96,9.366-18.835,1.661C172.18,101.243,174.757,99.286,179.713,98.61z"/>
<path fill-rule="evenodd" clip-rule="evenodd" fill="#3F8F21" d="M25.703,140.159c-3.553-5.514,8.084-24.542,16.065-17.727
	c2.181,1.861,0.532,8.764-1.108,11.079C37.721,137.667,30.467,138.808,25.703,140.159z"/>
<path fill-rule="evenodd" clip-rule="evenodd" fill="#3F8F21" d="M114.897,152.348c-0.927-5.751-0.859-14.528,2.769-18.836
	c1.573-1.867,8.329-5.492,11.081-3.877c2.326,1.364,2.324,9.108,1.106,12.188C127.721,147.217,120.28,150.817,114.897,152.348z"/>
<path fill-rule="evenodd" clip-rule="evenodd" fill="#3F8F21" d="M175.281,147.916c-6.302,2.564-18.895-7.144-13.85-12.188
	C166.687,130.472,176.363,141.679,175.281,147.916z"/>
<path fill-rule="evenodd" clip-rule="evenodd" fill="#3F8F21" d="M47.862,14.403c8.48,3.927,26.951,11.237,23.822,28.808
	c-0.246,1.379-2.03,6.617-3.324,7.202c-2.204,0.996-8.294-1.12-10.526-2.216C47.766,43.248,45.46,28.498,47.862,14.403z"/>
<path fill-rule="evenodd" clip-rule="evenodd" fill="#3F8F21" d="M144.812,50.413c-4.312,8.917-10.8,22.287-23.268,23.268
	c-4.177,0.328-12.075-1.061-13.298-3.878c-1.616-3.73,2.972-11.834,5.541-14.403C120.431,48.756,133.194,48.109,144.812,50.413z"/>
<path fill-rule="evenodd" clip-rule="evenodd" fill="#3F8F21" d="M13.516,113.568c3.491-7.783,8.426-17.646,16.619-21.606
	c5.236-2.531,18.018-2.407,19.944,2.216c1.923,4.617-4.081,13.431-6.647,15.512C36.906,114.982,23.008,115.857,13.516,113.568z"/>
<path fill-rule="evenodd" clip-rule="evenodd" fill="#3F8F21" d="M160.877,110.799c5.696-0.846,10.462,1.358,13.85,4.432
	c1.939,1.758,8.701,9.929,7.756,11.634c-0.723,1.303-10.721,2.281-15.513,1.661c-2.527-0.324-7.162-1.889-8.863-3.322
	c-2.438-2.058-5.91-8.485-4.986-11.082C153.823,112.153,158.299,111.182,160.877,110.799z"/>
<path fill-rule="evenodd" clip-rule="evenodd" fill="#3F8F21" d="M104.37,147.916c-14.635-3.094-31.166-19.787-21.052-35.456
	c0.054-0.084,0.98,0,1.108,0C100.72,112.45,107.776,128.232,104.37,147.916z"/>
<path fill-rule="evenodd" clip-rule="evenodd" fill="#521D18" d="M129.973,162.317c4.382,0,8.767,0,13.149,0
	c3.84-10.187,6.733-21.759,5.801-36.742c-0.868-13.979-5.573-25.426-11.214-35.197c-1.472-2.548-4.437-9.266-6.19-8.506
	c-3.289,1.418,0.088,5.967,1.161,8.121c4.72,9.472,6.942,18.352,8.121,29.78c-8.504-1.747-14.279-6.158-19.724-11.603
	c-1.213-1.211-4.918-5.352-6.575-3.095c-0.744,1.014,2.669,4.749,3.48,5.802c4.346,5.633,9.851,10.219,15.471,13.148
	c1.106,0.58,6.741,1.988,7.348,3.095c0.968,1.767-0.704,7.566-1.159,10.057C137.63,148.202,134.504,153.912,129.973,162.317z"/>
<path fill-rule="evenodd" clip-rule="evenodd" fill="#521D18" d="M142.543,175.579c0.663,2.517,0.363,5.559,0.363,8.736
	c0.001,2.866-0.88,6.746,0.183,8.918c1.183,2.415,9.073,1.152,12.195,0.911c4.471-0.348,8.927-0.992,12.739-0.183
	c0.17,2.79-3.745,2.359-6.006,2.548c-2.576,0.215-5.277,0.343-7.827,0.546c-3.332,0.266-12.662,2.064-14.194-1.456
	c-0.639-1.465-0.182-5.52-0.182-7.825c0-2.813-0.178-5.89,0-8.009C139.962,177.971,140.228,175.3,142.543,175.579z"/>
<path fill-rule="evenodd" clip-rule="evenodd" fill="#521D18" d="M126.528,179.947c-1.911,5.186-2.043,12.153-2.73,18.565
	c-0.679,0.412-1.502,0.68-2.547,0.727c-0.264-7.287-0.595-15.12,2.729-19.292c-4.845-1.551-11.231,0.353-16.198-0.182
	c-1.194-3.992,4.396-3.623,8.009-3.458c4.968,0.226,9.889,0.25,14.924,0.546c2.728,0.16,8.735,0.024,8.735,1.82
	c0,1.842-3.892,1.273-5.823,1.273C130.858,179.947,128.8,179.947,126.528,179.947z"/>
<path fill-rule="evenodd" clip-rule="evenodd" fill="#521D18" d="M75.022,188.684c-0.224-2.202-2.724-2.129-4.186-3.094
	c-1.075-4.359-3.26-10.242-6.37-12.923c-4.228-3.644-5.319,1.713-6.734,5.461c-2.608,6.906-5.521,16.16-5.278,23.842
	c1.545,0.423,2.61-0.478,3.458-1.273c0.615-3.451,0.02-8.11,1.82-10.375c2.937-0.946,6.508-1.257,10.555-1.092
	c1.879,3.643,1.303,9.738,2.73,13.832c1.495,0.159,2.409-0.26,2.912-1.092c-0.877-3.854-2.167-7.298-2.002-12.193
	C73.233,189.687,74.417,189.475,75.022,188.684z M58.642,186.864c0.229-3.639,2.14-7.051,3.276-10.374
	c4.387,0.648,4.384,5.687,5.824,9.281C64.65,186.077,61.896,186.72,58.642,186.864z"/>
<path fill-rule="evenodd" clip-rule="evenodd" fill="#521D18" d="M191.32,178.855c-1.969,0.925-4.896,0.232-7.281,0.363
	c-4.119,0.229-8.026,1.44-11.281,2.185c0.141,1.902-0.146,3.375-0.547,4.732c2.414,0.562,5.519,0.063,8.554-0.183
	c2.795-0.226,5.988-1.213,8.007,0.183c0.174,2.762-3.258,2.562-5.457,2.548c-4.594-0.028-10.039-0.798-11.467,2.548
	c-1.162,9.818,12.225,6.254,19.107,6.006c0.509,0.54,0.462,2.137,0.184,2.912c-9.083-0.417-21.393,3.058-22.568-5.46
	c-0.33-2.395,0.078-4.777,0.364-7.644c0.226-2.267,0.119-5.575,0.91-7.099c1.339-2.582,6.626-2.822,10.92-3.094
	C184.291,176.63,190.865,175.443,191.32,178.855z"/>
<path fill-rule="evenodd" clip-rule="evenodd" fill="#521D18" d="M27.337,177.399c0.817,2.824,0.521,6.759,0.912,10.011
	c4.672-1.726,8.171-3.892,11.647-6.734c1.03-0.843,2.021-2.343,3.822-2.002c-0.099,0.626,0.131,1.13,0,1.819
	c-0.307,1.62-3.303,3.774-4.732,4.732c-2.023,1.356-4.418,2.062-6.005,3.093c4.663,2.739,9.665,5.139,14.377,7.828
	c2.242,0.124,4.66,0.071,4.55,2.548c-9.969,2.421-13.472-7.18-22.932-7.28c-0.565,3.403,0.794,9.618-3.458,8.735
	c-0.75-1.982-0.181-6.043-0.364-10.191C24.939,185.072,22.963,175.702,27.337,177.399z"/>
<path fill-rule="evenodd" clip-rule="evenodd" fill="#521D18" d="M20.058,177.581c0.361,3.265-4.516,2.803-7.462,3.095
	c-3.438,0.341-6.682,0.785-8.19,2.548c2.039,1.493,5.209,1.934,8.19,2.729c2.814,0.753,6.257,1.203,8.372,2.365
	c1.87,1.03,3.965,4.288,3.275,7.463c-1.282,5.901-21.124,6.709-23.841,0.91c-0.517-1.101-0.556-2.846,0-4.004
	c2.25,0.604,2.239,3.188,4.003,4.186c1.782,1.011,5.938,1.056,8.554,0.911c3.438-0.191,8.429-0.925,8.19-4.004
	c-0.291-3.748-8.146-4.65-11.83-5.643c-3.168-0.854-6.265-1.513-8.737-2.729C-0.721,177.353,12.466,176.934,20.058,177.581z"/>
<path fill-rule="evenodd" clip-rule="evenodd" fill="#521D18" d="M94.131,182.313c-1.894,5.203-2.046,12.148-2.729,18.564
	c-0.679,0.413-1.503,0.681-2.548,0.728c-0.27-7.293-0.588-15.113,2.729-19.292c-4.875-1.682-11.642,0.645-16.38-0.364
	c-0.015-4.78,8.071-3.497,13.104-3.275c3.586,0.157,6.193,0.321,10.01,0.545c2.501,0.147,8.736-0.022,8.736,1.821
	c0,1.852-3.91,1.273-5.825,1.273C98.463,182.313,96.405,182.313,94.131,182.313z"/>
</svg>
