<?xml version="1.0" encoding="utf-8"?>
<!-- Generator: Adobe Illustrator 15.0.2, SVG Export Plug-In  -->
<!DOCTYPE svg PUBLIC "-//W3C//DTD SVG 1.1//EN" "http://www.w3.org/Graphics/SVG/1.1/DTD/svg11.dtd" [
	<!ENTITY ns_flows "http://ns.adobe.com/Flows/1.0/">
]>
<svg version="1.1"
	 xmlns="http://www.w3.org/2000/svg" xmlns:xlink="http://www.w3.org/1999/xlink" xmlns:a="http://ns.adobe.com/AdobeSVGViewerExtensions/3.0/"
	 x="0px" y="0px" width="255px" height="214px" viewBox="-3.192 0 255 214"
	 overflow="visible" enable-background="new -3.192 0 255 214" xml:space="preserve">
<defs>
</defs>
<path fill-rule="evenodd" clip-rule="evenodd" fill="#3F8F21" d="M108.706,0c2.873,2.895,7.861,8.634,7.201,15.511
	c-0.825,8.596-10.315,11.258-12.742,2.216C101.236,10.541,106.499,3.794,108.706,0z"/>
<path fill-rule="evenodd" clip-rule="evenodd" fill="#3F8F21" d="M135.295,12.187c4.383,0.294,7,21.709,2.771,29.363
	c-2.547,4.607-9.36,9.799-13.85,8.863c-3.938-0.82-6.22-7.397-6.647-11.08c-1.558-13.385,10.529-22.574,16.62-26.591
	C134.534,12.513,134.597,12.14,135.295,12.187z"/>
<path fill-rule="evenodd" clip-rule="evenodd" fill="#3F8F21" d="M165.766,23.267c1.06,4.966-1.614,13.944-5.539,16.62
	c-1.785,1.216-8.171,2.904-9.973,1.663c-2.43-1.676-0.886-8.829,0.555-11.081C153.629,26.059,161.028,24.83,165.766,23.267z"/>
<path fill-rule="evenodd" clip-rule="evenodd" fill="#3F8F21" d="M51.644,28.253c7.572-0.472,16.775,1.953,18.836,7.202
	c2.473,6.301-0.732,10.118-8.31,8.31C56.44,42.398,53.063,33.61,51.644,28.253z"/>
<path fill-rule="evenodd" clip-rule="evenodd" fill="#521D18" d="M115.906,162.32c-6.278,0-12.557,0-18.834,0
	c-5.5-14.591-9.644-31.166-8.311-52.631c1.244-20.021,7.987-36.417,16.066-50.413c2.106-3.649,6.353-13.272,8.863-12.187
	c4.71,2.037-0.126,8.551-1.661,11.634c-6.761,13.567-9.943,26.285-11.634,42.657c12.18-2.504,20.456-8.822,28.252-16.62
	c1.736-1.733,7.045-7.663,9.418-4.432c1.066,1.452-3.823,6.804-4.986,8.31c-6.224,8.069-14.108,14.636-22.158,18.836
	c-1.583,0.827-9.659,2.847-10.526,4.432c-1.385,2.531,1.01,10.835,1.661,14.404C104.939,142.1,109.419,150.28,115.906,162.32z"/>
<path fill-rule="evenodd" clip-rule="evenodd" fill="#3F8F21" d="M53.859,53.184c9.857-1.323,18.062-0.518,23.268,6.647
	c1.271,1.749,3.518,6.173,3.324,7.755c-0.772,6.327-14.134,8.75-20.497,6.647c-2.614-0.862-8.331-4.68-10.526-6.647
	c-1.587-1.421-9.235-8.936-8.31-11.079C41.68,55.203,51.43,53.509,53.859,53.184z"/>
<path fill-rule="evenodd" clip-rule="evenodd" fill="#3F8F21" d="M192.912,63.155c-0.54,5.622-4.641,13.36-10.526,13.85
	c-5.06,0.422-8.012-2.95-4.986-8.31C179.593,64.807,187.275,63.231,192.912,63.155z"/>
<path fill-rule="evenodd" clip-rule="evenodd" fill="#3F8F21" d="M42.226,77.559c4.616-0.924,12.879,0.269,13.295,4.985
	c0.566,6.397-10.626,8.186-17.173,5.541c-1.285-0.521-6.506-2.935-6.647-3.879C31.295,81.498,38.943,78.215,42.226,77.559z"/>
<path fill-rule="evenodd" clip-rule="evenodd" fill="#3F8F21" d="M213.41,82.544c-3.258,6.244-9.652,16.017-19.391,16.066
	c-2.968,0.016-9.722-1.962-10.525-4.433c-0.822-2.524,2.775-8.435,4.433-9.972C193.294,79.226,206.71,79.301,213.41,82.544z"/>
<path fill-rule="evenodd" clip-rule="evenodd" fill="#3F8F21" d="M211.194,98.61c0.103-0.014,11.275,1.041,11.633,3.879
	c0.527,4.188-17.96,9.366-18.835,1.661C203.661,101.243,206.238,99.286,211.194,98.61z"/>
<path fill-rule="evenodd" clip-rule="evenodd" fill="#3F8F21" d="M57.183,140.159c-3.553-5.514,8.084-24.542,16.065-17.727
	c2.181,1.861,0.532,8.764-1.108,11.079C69.201,137.667,61.947,138.808,57.183,140.159z"/>
<path fill-rule="evenodd" clip-rule="evenodd" fill="#3F8F21" d="M146.377,152.348c-0.927-5.751-0.859-14.528,2.769-18.836
	c1.573-1.867,8.329-5.492,11.081-3.877c2.326,1.364,2.324,9.108,1.106,12.188C159.202,147.217,151.76,150.817,146.377,152.348z"/>
<path fill-rule="evenodd" clip-rule="evenodd" fill="#3F8F21" d="M206.761,147.916c-6.302,2.564-18.895-7.144-13.85-12.188
	C198.167,130.472,207.843,141.679,206.761,147.916z"/>
<path fill-rule="evenodd" clip-rule="evenodd" fill="#3F8F21" d="M79.343,14.403c8.48,3.927,26.951,11.237,23.822,28.808
	c-0.246,1.379-2.03,6.617-3.324,7.202c-2.204,0.996-8.294-1.12-10.526-2.216C79.246,43.248,76.941,28.498,79.343,14.403z"/>
<path fill-rule="evenodd" clip-rule="evenodd" fill="#3F8F21" d="M176.292,50.413c-4.312,8.917-10.8,22.287-23.268,23.268
	c-4.177,0.328-12.075-1.061-13.298-3.878c-1.616-3.73,2.972-11.834,5.541-14.403C151.912,48.756,164.674,48.109,176.292,50.413z"/>
<path fill-rule="evenodd" clip-rule="evenodd" fill="#3F8F21" d="M44.996,113.568c3.491-7.783,8.426-17.646,16.619-21.606
	c5.236-2.531,18.018-2.407,19.944,2.216c1.923,4.617-4.081,13.431-6.647,15.512C68.386,114.982,54.488,115.857,44.996,113.568z"/>
<path fill-rule="evenodd" clip-rule="evenodd" fill="#3F8F21" d="M192.358,110.799c5.696-0.846,10.462,1.358,13.85,4.432
	c1.939,1.758,8.701,9.929,7.756,11.634c-0.723,1.303-10.721,2.281-15.513,1.661c-2.527-0.324-7.162-1.889-8.863-3.322
	c-2.438-2.058-5.91-8.485-4.986-11.082C185.303,112.153,189.78,111.182,192.358,110.799z"/>
<path fill-rule="evenodd" clip-rule="evenodd" fill="#3F8F21" d="M135.85,147.916c-14.635-3.094-31.166-19.787-21.052-35.456
	c0.054-0.084,0.98,0,1.108,0C132.201,112.45,139.256,128.232,135.85,147.916z"/>
<path fill-rule="evenodd" clip-rule="evenodd" fill="#521D18" d="M161.454,162.317c4.382,0,8.767,0,13.149,0
	c3.84-10.187,6.733-21.759,5.801-36.742c-0.868-13.979-5.573-25.426-11.214-35.197c-1.472-2.548-4.437-9.266-6.19-8.506
	c-3.289,1.418,0.088,5.967,1.161,8.121c4.72,9.472,6.942,18.352,8.121,29.78c-8.504-1.747-14.279-6.158-19.724-11.603
	c-1.213-1.211-4.918-5.352-6.575-3.095c-0.744,1.014,2.669,4.749,3.48,5.802c4.346,5.633,9.851,10.219,15.471,13.148
	c1.106,0.58,6.741,1.988,7.348,3.095c0.968,1.767-0.704,7.566-1.159,10.057C169.111,148.202,165.985,153.912,161.454,162.317z"/>
<path fill-rule="evenodd" clip-rule="evenodd" fill="#521D18" d="M185.029,178.052c0.861,3.267,0.471,7.215,0.471,11.34
	c0.002,3.721-1.141,8.757,0.238,11.575c1.533,3.136,11.777,1.497,15.83,1.184c5.803-0.451,11.588-1.288,16.537-0.237
	c0.219,3.621-4.863,3.062-7.797,3.308c-3.346,0.279-6.852,0.444-10.16,0.709c-4.324,0.344-16.436,2.679-18.426-1.891
	c-0.828-1.901-0.236-7.164-0.236-10.157c0-3.652-0.229-7.646,0-10.396C181.679,181.155,182.023,177.688,185.029,178.052z"/>
<path fill-rule="evenodd" clip-rule="evenodd" fill="#521D18" d="M164.24,183.722c-2.48,6.731-2.652,15.775-3.545,24.099
	c-0.881,0.535-1.949,0.883-3.305,0.943c-0.344-9.459-0.771-19.627,3.543-25.042c-6.289-2.013-14.58,0.457-21.027-0.235
	c-1.551-5.183,5.707-4.704,10.395-4.489c6.451,0.292,12.838,0.324,19.373,0.708c3.543,0.209,11.34,0.032,11.34,2.364
	c0,2.39-5.053,1.652-7.559,1.652C169.859,183.722,167.189,183.722,164.24,183.722z"/>
<path fill-rule="evenodd" clip-rule="evenodd" fill="#521D18" d="M97.382,195.062c-0.291-2.858-3.536-2.764-5.434-4.016
	c-1.395-5.659-4.231-13.295-8.269-16.774c-5.488-4.729-6.904,2.224-8.741,7.089c-3.385,8.964-7.166,20.977-6.851,30.948
	c2.006,0.548,3.388-0.62,4.488-1.654c0.798-4.479,0.026-10.526,2.363-13.467c3.812-1.229,8.448-1.632,13.701-1.417
	c2.439,4.728,1.691,12.641,3.544,17.955c1.941,0.206,3.126-0.338,3.78-1.417c-1.139-5.004-2.812-9.474-2.6-15.829
	C95.061,196.363,96.597,196.088,97.382,195.062z M76.12,192.7c0.298-4.724,2.777-9.152,4.252-13.466
	c5.695,0.842,5.691,7.381,7.561,12.048C83.918,191.678,80.343,192.513,76.12,192.7z"/>
<path fill-rule="evenodd" clip-rule="evenodd" fill="#521D18" d="M248.343,182.305c-2.555,1.2-6.355,0.302-9.451,0.471
	c-5.348,0.297-10.42,1.87-14.645,2.837c0.182,2.469-0.189,4.38-0.709,6.142c3.133,0.73,7.162,0.083,11.104-0.236
	c3.627-0.293,7.773-1.574,10.393,0.236c0.225,3.586-4.229,3.326-7.082,3.308c-5.965-0.037-13.033-1.036-14.887,3.308
	c-1.508,12.744,15.867,8.118,24.803,7.796c0.66,0.701,0.6,2.773,0.238,3.779c-11.789-0.54-27.768,3.97-29.295-7.087
	c-0.43-3.108,0.102-6.201,0.473-9.922c0.293-2.942,0.154-7.237,1.182-9.214c1.738-3.352,8.602-3.663,14.176-4.017
	C239.218,179.415,247.751,177.875,248.343,182.305z"/>
<path fill-rule="evenodd" clip-rule="evenodd" fill="#521D18" d="M35.484,180.414c1.062,3.667,0.677,8.773,1.184,12.995
	c6.065-2.24,10.606-5.052,15.119-8.742c1.337-1.094,2.623-3.04,4.96-2.598c-0.128,0.812,0.17,1.466,0,2.361
	c-0.398,2.103-4.288,4.898-6.142,6.143c-2.626,1.761-5.736,2.678-7.795,4.015c6.052,3.556,12.545,6.67,18.663,10.161
	c2.909,0.161,6.049,0.093,5.905,3.308c-12.94,3.142-17.487-9.32-29.767-9.451c-0.733,4.418,1.031,12.485-4.489,11.339
	c-0.973-2.572-0.235-7.843-0.472-13.228C32.372,190.374,29.808,178.211,35.484,180.414z"/>
<path fill-rule="evenodd" clip-rule="evenodd" fill="#521D18" d="M26.037,180.649c0.469,4.238-5.862,3.639-9.686,4.018
	c-4.462,0.442-8.673,1.019-10.631,3.308c2.646,1.938,6.761,2.51,10.631,3.543c3.653,0.977,8.122,1.562,10.867,3.07
	c2.427,1.338,5.147,5.566,4.251,9.687c-1.664,7.661-27.419,8.709-30.947,1.182c-0.671-1.429-0.722-3.693,0-5.197
	c2.92,0.783,2.907,4.138,5.197,5.434c2.312,1.312,7.707,1.37,11.103,1.183c4.463-0.248,10.942-1.201,10.631-5.197
	c-0.378-4.865-10.574-6.036-15.355-7.324c-4.113-1.108-8.131-1.964-11.341-3.544C-0.936,180.354,16.182,179.811,26.037,180.649z"/>
<path fill-rule="evenodd" clip-rule="evenodd" fill="#521D18" d="M122.187,186.793c-2.458,6.754-2.655,15.769-3.542,24.098
	c-0.881,0.536-1.952,0.883-3.308,0.944c-0.35-9.467-0.763-19.617,3.542-25.042c-6.328-2.184-15.111,0.836-21.262-0.473
	c-0.019-6.205,10.477-4.54,17.01-4.251c4.654,0.203,8.039,0.417,12.993,0.706c3.246,0.192,11.339-0.028,11.339,2.364
	c0,2.404-5.074,1.653-7.561,1.653C127.811,186.793,125.138,186.793,122.187,186.793z"/>
</svg>
