<?xml version="1.0" encoding="utf-8"?>
<!-- Generator: Adobe Illustrator 15.0.2, SVG Export Plug-In  -->
<!DOCTYPE svg PUBLIC "-//W3C//DTD SVG 1.1//EN" "http://www.w3.org/Graphics/SVG/1.1/DTD/svg11.dtd" [
	<!ENTITY ns_flows "http://ns.adobe.com/Flows/1.0/">
]>
<svg version="1.1"
	 xmlns="http://www.w3.org/2000/svg" xmlns:xlink="http://www.w3.org/1999/xlink" xmlns:a="http://ns.adobe.com/AdobeSVGViewerExtensions/3.0/"
	 x="0px" y="0px" width="578px" height="162px" viewBox="-0.542 0 578 162"
	 overflow="visible" enable-background="new -0.542 0 578 162" xml:space="preserve">
<defs>
</defs>
<path fill-rule="evenodd" clip-rule="evenodd" fill="#3F8F21" d="M77.021,0c2.873,2.895,7.861,8.634,7.201,15.511
	c-0.825,8.596-10.315,11.258-12.742,2.216C69.552,10.541,74.815,3.794,77.021,0z"/>
<path fill-rule="evenodd" clip-rule="evenodd" fill="#3F8F21" d="M103.611,12.187c4.383,0.294,7,21.709,2.771,29.363
	c-2.547,4.607-9.36,9.799-13.85,8.863c-3.938-0.82-6.22-7.397-6.647-11.08c-1.558-13.385,10.529-22.574,16.62-26.591
	C102.85,12.513,102.913,12.14,103.611,12.187z"/>
<path fill-rule="evenodd" clip-rule="evenodd" fill="#3F8F21" d="M134.082,23.267c1.06,4.966-1.614,13.944-5.539,16.62
	c-1.785,1.216-8.171,2.904-9.973,1.663c-2.43-1.676-0.886-8.829,0.555-11.081C121.945,26.059,129.344,24.83,134.082,23.267z"/>
<path fill-rule="evenodd" clip-rule="evenodd" fill="#3F8F21" d="M19.959,28.253c7.572-0.472,16.775,1.953,18.836,7.202
	c2.473,6.301-0.732,10.118-8.31,8.31C24.756,42.398,21.379,33.61,19.959,28.253z"/>
<path fill-rule="evenodd" clip-rule="evenodd" fill="#521D18" d="M84.222,162.32c-6.278,0-12.557,0-18.834,0
	c-5.5-14.591-9.644-31.166-8.311-52.631c1.244-20.021,7.987-36.417,16.066-50.413c2.106-3.649,6.353-13.272,8.863-12.187
	c4.71,2.037-0.126,8.551-1.661,11.634c-6.761,13.567-9.943,26.285-11.634,42.657c12.18-2.504,20.456-8.822,28.252-16.62
	c1.736-1.733,7.045-7.663,9.418-4.432c1.066,1.452-3.823,6.804-4.986,8.31c-6.224,8.069-14.108,14.636-22.158,18.836
	c-1.583,0.827-9.659,2.847-10.526,4.432c-1.385,2.531,1.01,10.835,1.661,14.404C73.255,142.1,77.735,150.28,84.222,162.32z"/>
<path fill-rule="evenodd" clip-rule="evenodd" fill="#3F8F21" d="M22.175,53.184c9.857-1.323,18.062-0.518,23.268,6.647
	c1.271,1.749,3.518,6.173,3.324,7.755c-0.772,6.327-14.134,8.75-20.497,6.647c-2.614-0.862-8.331-4.68-10.526-6.647
	c-1.587-1.421-9.235-8.936-8.31-11.079C9.996,55.203,19.746,53.509,22.175,53.184z"/>
<path fill-rule="evenodd" clip-rule="evenodd" fill="#3F8F21" d="M161.228,63.155c-0.54,5.622-4.641,13.36-10.526,13.85
	c-5.06,0.422-8.012-2.95-4.986-8.31C147.909,64.807,155.591,63.231,161.228,63.155z"/>
<path fill-rule="evenodd" clip-rule="evenodd" fill="#3F8F21" d="M10.542,77.559c4.616-0.924,12.879,0.269,13.295,4.985
	c0.566,6.397-10.626,8.186-17.173,5.541c-1.285-0.521-6.506-2.935-6.647-3.879C-0.389,81.498,7.259,78.215,10.542,77.559z"/>
<path fill-rule="evenodd" clip-rule="evenodd" fill="#3F8F21" d="M181.726,82.544c-3.258,6.244-9.652,16.017-19.391,16.066
	c-2.968,0.016-9.722-1.962-10.525-4.433c-0.822-2.524,2.775-8.435,4.433-9.972C161.61,79.226,175.026,79.301,181.726,82.544z"/>
<path fill-rule="evenodd" clip-rule="evenodd" fill="#3F8F21" d="M179.51,98.61c0.103-0.014,11.275,1.041,11.633,3.879
	c0.527,4.188-17.96,9.366-18.835,1.661C171.977,101.243,174.554,99.286,179.51,98.61z"/>
<path fill-rule="evenodd" clip-rule="evenodd" fill="#3F8F21" d="M25.499,140.159c-3.553-5.514,8.084-24.542,16.065-17.727
	c2.181,1.861,0.532,8.764-1.108,11.079C37.517,137.667,30.263,138.808,25.499,140.159z"/>
<path fill-rule="evenodd" clip-rule="evenodd" fill="#3F8F21" d="M114.693,152.348c-0.927-5.751-0.859-14.528,2.769-18.836
	c1.573-1.867,8.329-5.492,11.081-3.877c2.326,1.364,2.324,9.108,1.106,12.188C127.518,147.217,120.076,150.817,114.693,152.348z"/>
<path fill-rule="evenodd" clip-rule="evenodd" fill="#3F8F21" d="M175.077,147.916c-6.302,2.564-18.895-7.144-13.85-12.188
	C166.483,130.472,176.159,141.679,175.077,147.916z"/>
<path fill-rule="evenodd" clip-rule="evenodd" fill="#3F8F21" d="M47.659,14.403C56.139,18.33,74.61,25.64,71.48,43.211
	c-0.246,1.379-2.03,6.617-3.324,7.202c-2.204,0.996-8.294-1.12-10.526-2.216C47.562,43.248,45.257,28.498,47.659,14.403z"/>
<path fill-rule="evenodd" clip-rule="evenodd" fill="#3F8F21" d="M144.608,50.413c-4.312,8.917-10.8,22.287-23.268,23.268
	c-4.177,0.328-12.075-1.061-13.298-3.878c-1.616-3.73,2.972-11.834,5.541-14.403C120.228,48.756,132.99,48.109,144.608,50.413z"/>
<path fill-rule="evenodd" clip-rule="evenodd" fill="#3F8F21" d="M13.312,113.568c3.491-7.783,8.426-17.646,16.619-21.606
	c5.236-2.531,18.018-2.407,19.944,2.216c1.923,4.617-4.081,13.431-6.647,15.512C36.702,114.982,22.804,115.857,13.312,113.568z"/>
<path fill-rule="evenodd" clip-rule="evenodd" fill="#3F8F21" d="M160.674,110.799c5.696-0.846,10.462,1.358,13.85,4.432
	c1.939,1.758,8.701,9.929,7.756,11.634c-0.723,1.303-10.721,2.281-15.513,1.661c-2.527-0.324-7.162-1.889-8.863-3.322
	c-2.438-2.058-5.91-8.485-4.986-11.082C153.619,112.153,158.096,111.182,160.674,110.799z"/>
<path fill-rule="evenodd" clip-rule="evenodd" fill="#3F8F21" d="M104.166,147.916C89.531,144.822,73,128.129,83.114,112.46
	c0.054-0.084,0.98,0,1.108,0C100.517,112.45,107.572,128.232,104.166,147.916z"/>
<path fill-rule="evenodd" clip-rule="evenodd" fill="#521D18" d="M129.77,162.317c4.382,0,8.767,0,13.149,0
	c3.84-10.187,6.733-21.759,5.801-36.742c-0.868-13.979-5.573-25.426-11.214-35.197c-1.472-2.548-4.437-9.266-6.19-8.506
	c-3.289,1.418,0.088,5.967,1.161,8.121c4.72,9.472,6.942,18.352,8.121,29.78c-8.504-1.747-14.279-6.158-19.724-11.603
	c-1.213-1.211-4.918-5.352-6.575-3.095c-0.744,1.014,2.669,4.749,3.48,5.802c4.346,5.633,9.851,10.219,15.471,13.148
	c1.106,0.58,6.741,1.988,7.348,3.095c0.968,1.767-0.704,7.566-1.159,10.057C137.427,148.202,134.301,153.912,129.77,162.317z"/>
<path fill-rule="evenodd" clip-rule="evenodd" fill="#521D18" d="M485.221,58.075c1.257,4.775,0.688,10.547,0.688,16.576
	c0.001,5.438-1.669,12.8,0.346,16.921c2.245,4.583,17.217,2.187,23.14,1.729c8.482-0.661,16.938-1.882,24.172-0.347
	c0.322,5.294-7.106,4.477-11.396,4.834c-4.889,0.408-10.012,0.65-14.852,1.036c-6.321,0.504-24.023,3.917-26.931-2.763
	c-1.213-2.778-0.345-10.473-0.345-14.847c0-5.338-0.337-11.175,0-15.195C480.322,62.613,480.827,57.545,485.221,58.075z"/>
<path fill-rule="evenodd" clip-rule="evenodd" fill="#521D18" d="M454.833,66.362c-3.625,9.839-3.877,23.059-5.181,35.226
	c-1.287,0.781-2.85,1.29-4.832,1.378c-0.501-13.826-1.128-28.688,5.179-36.604c-9.191-2.941-21.311,0.669-30.734-0.344
	c-2.267-7.575,8.342-6.874,15.196-6.561c9.425,0.427,18.762,0.474,28.314,1.036c5.177,0.303,16.574,0.046,16.574,3.454
	c0,3.494-7.382,2.416-11.049,2.416C463.049,66.362,459.145,66.362,454.833,66.362z"/>
<path fill-rule="evenodd" clip-rule="evenodd" fill="#521D18" d="M357.109,82.938c-0.425-4.178-5.168-4.039-7.944-5.87
	c-2.038-8.271-6.184-19.433-12.084-24.519c-8.023-6.914-10.093,3.25-12.777,10.362c-4.947,13.103-10.476,30.661-10.013,45.235
	c2.93,0.803,4.95-0.907,6.56-2.417c1.166-6.548,0.036-15.387,3.453-19.684c5.57-1.796,12.347-2.386,20.026-2.072
	c3.565,6.911,2.472,18.477,5.18,26.244c2.84,0.302,4.571-0.493,5.525-2.072c-1.664-7.313-4.109-13.846-3.798-23.135
	C353.716,84.842,355.962,84.439,357.109,82.938z M326.029,79.487c0.435-6.904,4.059-13.378,6.215-19.683
	c8.323,1.23,8.317,10.789,11.052,17.609C337.429,77.993,332.204,79.212,326.029,79.487z"/>
<path fill-rule="evenodd" clip-rule="evenodd" fill="#521D18" d="M577.767,64.292c-3.735,1.754-9.291,0.44-13.815,0.689
	c-7.815,0.434-15.229,2.733-21.405,4.145c0.267,3.609-0.274,6.404-1.037,8.979c4.579,1.068,10.47,0.121,16.23-0.345
	c5.303-0.429,11.36-2.302,15.19,0.345c0.33,5.24-6.182,4.86-10.354,4.834c-8.717-0.054-19.047-1.514-21.757,4.834
	c-2.205,18.629,23.195,11.866,36.253,11.396c0.967,1.025,0.876,4.054,0.35,5.526c-17.235-0.792-40.59,5.801-42.82-10.36
	c-0.627-4.543,0.147-9.064,0.691-14.502c0.428-4.301,0.227-10.578,1.727-13.469c2.54-4.899,12.571-5.354,20.72-5.869
	C564.428,60.068,576.902,57.818,577.767,64.292z"/>
<path fill-rule="evenodd" clip-rule="evenodd" fill="#521D18" d="M266.634,61.528c1.55,5.358,0.991,12.824,1.729,18.994
	c8.865-3.274,15.503-7.383,22.1-12.777c1.952-1.599,3.836-4.445,7.253-3.798c-0.19,1.187,0.247,2.144,0,3.451
	c-0.583,3.075-6.27,7.162-8.98,8.979c-3.839,2.574-8.382,3.913-11.395,5.868c8.848,5.198,18.34,9.75,27.279,14.853
	c4.252,0.236,8.842,0.135,8.632,4.835c-18.913,4.593-25.56-13.622-43.508-13.813c-1.073,6.457,1.504,18.25-6.563,16.575
	c-1.423-3.762-0.344-11.466-0.689-19.337C262.085,76.086,258.336,58.308,266.634,61.528z"/>
<path fill-rule="evenodd" clip-rule="evenodd" fill="#521D18" d="M252.822,61.873c0.686,6.195-8.566,5.317-14.157,5.872
	c-6.522,0.646-12.68,1.489-15.541,4.834c3.871,2.833,9.885,3.669,15.541,5.18c5.341,1.428,11.872,2.282,15.886,4.486
	c3.548,1.955,7.521,8.136,6.215,14.161c-2.433,11.195-40.079,12.728-45.236,1.726c-0.98-2.089-1.054-5.399,0-7.597
	c4.268,1.145,4.249,6.047,7.595,7.941c3.381,1.918,11.268,2.002,16.232,1.728c6.522-0.362,15.993-1.754,15.538-7.596
	c-0.552-7.111-15.455-8.823-22.445-10.706c-6.013-1.618-11.886-2.87-16.575-5.178C213.397,61.439,238.419,60.645,252.822,61.873z"/>
<path fill-rule="evenodd" clip-rule="evenodd" fill="#521D18" d="M393.366,70.852c-3.594,9.872-3.883,23.05-5.179,35.224
	c-1.286,0.783-2.854,1.292-4.833,1.38c-0.514-13.837-1.116-28.675,5.178-36.604c-9.251-3.191-22.089,1.223-31.078-0.691
	c-0.029-9.069,15.312-6.634,24.863-6.214c6.804,0.298,11.751,0.609,18.991,1.034c4.745,0.279,16.575-0.043,16.575,3.455
	c0,3.513-7.417,2.416-11.052,2.416C401.585,70.852,397.68,70.852,393.366,70.852z"/>
</svg>
